<svg xmlns="http://www.w3.org/2000/svg" width="195.745" height="236.549" viewBox="0 0 195.745 236.549">
  <g id="aws-ec2" transform="translate(0.25 0.405)">
    <path id="Path_2770" data-name="Path 2770" d="M35.654,200.132l-22.818,5.206V57.565l22.818,5.216V200.132" transform="translate(-3.046 -13.662)" fill="#fff" stroke="#000" stroke-width="0.5"/>
    <path id="Path_2771" data-name="Path 2771" d="M71.223,195.192l-28.469,8.09V32.5L71.223,40.58V195.192m36.52,8.961-36.52,13.365V18.263l36.52,13.359V204.154m97.648-17.238L107.743,235.74V0l97.648,48.824V186.916" transform="translate(-10.147)" fill="#fff" stroke="#000" stroke-width="0.5"/>
    <path id="Path_2772" data-name="Path 2772" d="M78.131,9.734,97.6,0V235.74l-19.465-9.731V9.734M46.008,25.794,61.077,18.26V217.48l-15.068-7.534V25.794M20.6,38.5l12-6V203.244l-12-6.005V38.5M9.79,43.9,0,48.8V186.945l9.79,4.892V43.9" fill="#fff" stroke="#000" stroke-width="0.5"/>
  </g>
</svg>
